<?xml version="1.0" encoding="utf-8"?>
<!-- Generator: Adobe Illustrator 26.3.1, SVG Export Plug-In . SVG Version: 6.00 Build 0)  -->
<svg version="1.1" id="Layer_1" xmlns="http://www.w3.org/2000/svg" xmlns:xlink="http://www.w3.org/1999/xlink" x="0px" y="0px"
	 viewBox="0 0 216.8 113.7" style="enable-background:new 0 0 216.8 113.7;" xml:space="preserve">
<style type="text/css">
	.st0{fill:#006600;}
	.st1{fill:#FFFFFF;}
	.st2{fill:#33CC33;}
</style>
<g>
	<path d="M187.6-224.9c-0.7,0.6-1.3,1.4-1.5,2.3C186.6-223.4,187.1-224.1,187.6-224.9L187.6-224.9z"/>
</g>
<g>
	<path d="M43.3-247.1c1.9,0,3.5,1.6,3.5,3.5s-1.6,3.5-3.5,3.5s-3.5-1.6-3.5-3.5S41.4-247.1,43.3-247.1 M43.3-248.1
		c-2.5,0-4.5,2-4.5,4.5s2,4.5,4.5,4.5s4.5-2,4.5-4.5S45.8-248.1,43.3-248.1L43.3-248.1z"/>
</g>
<g>
	<path d="M97.3-391.1c28.6,0,55.5,11.1,75.7,31.3c20.2,20.2,31.3,47.1,31.3,75.7c0,3.2-0.1,6.5-0.4,9.7c-0.3,3.9-0.9,7.7-1.7,11.5
		c-0.4,1.9-0.8,3.8-1.3,5.6c-1.7,6.6-4.1,13.2-7.1,19.4c-0.2,0.5-0.4,0.9-0.7,1.4c-0.6,0.9-1.7,1.4-2.8,1.4c-0.7,0-1.4-0.2-2-0.7
		c-0.7-0.5-1.2-1.2-1.4-2v-0.2l-0.1-0.2c-20.4-29.3-53.9-46.9-89.6-46.9c-1.4,0-2.8,0-4.2,0.1c-3.2,0.1-6.6,0.4-9.9,0.8
		c-16.7,2.1-32.9,8.3-46.8,17.7c-13.2,8.9-24.4,20.8-32.6,34.4c-1.5-2.7-2.9-5.4-4.1-8.2c-6.2-13.8-9.4-28.6-9.4-43.8
		c0-18.5,4.8-36.7,13.8-52.6c1.6-2.8,3.3-5.5,5.2-8.3C29.3-373.9,62.2-391.1,97.3-391.1 M97.3-392.1c-36.8,0-69.3,18.4-88.8,46.6
		c-1.9,2.7-3.6,5.5-5.2,8.3c-8.9,15.7-13.9,33.8-13.9,53.1c0,15.8,3.4,30.7,9.4,44.2c1.5,3.4,3.2,6.6,5,9.8
		c16.5-28.5,45.5-48.7,79.6-53.1c3.2-0.4,6.5-0.7,9.8-0.8c1.4-0.1,2.8-0.1,4.1-0.1c36.8,0,69.2,18.4,88.7,46.4
		c0.2,1.1,0.9,2,1.8,2.6c0.7,0.5,1.6,0.8,2.6,0.8c1.5,0,2.8-0.7,3.6-1.8c0.3-0.5,0.5-1,0.7-1.5c3-6.2,5.4-12.8,7.1-19.6
		c0.5-1.9,0.9-3.8,1.3-5.6c0.8-3.8,1.3-7.7,1.7-11.6c0.3-3.2,0.4-6.5,0.4-9.8C205.3-343.8,156.9-392.1,97.3-392.1L97.3-392.1z"/>
</g>
<g>
	<path class="st0" d="M29.3,65c-0.7-0.9-1.2-1.5-2.1-2.3c-0.7-0.7-1.3-1.1-2.6-1.2c-0.1,0-0.2,0-0.3,0c-1.6,0-3.2,1-4.1,2.6
		c-0.1,0.1-0.1,0.3-0.2,0.4l-0.1,0.1v0.1c-3,6.3-5.4,12.9-7.2,19.7c-0.1,0.5-0.3,1-0.4,1.5c-0.4,1.3-1.2,2.3-2.3,2.7
		c-0.5,0.1-0.9,0.2-1.4,0.2c-1.5,0-3.1-1.6-3.8-3c-0.1-0.3-0.2-0.3-0.2-0.4c0-0.1,0-0.1-0.1-0.3C2.2,76.2,1,67.1,1,57.8
		C1,48,2.3,38.3,4.9,29c0.2-0.5,0.3-1.1,0.5-1.7c0.2-0.8,0.7-1.5,1.4-1.9c0.6-0.4,1.4-0.6,2.1-0.6c1.2,0,2.2,0.8,2.5,2
		c0.3,1.4,0.7,2.7,1,4.1c1.8,6.7,4.2,13.3,7.2,19.6c0.3,0.6,0.4,1,0.8,1.6c0.8,1.3,2.2,2.1,3.6,2.1c0.2,0,0.3,0,0.5,0
		c1.2-0.1,1.7-0.3,2.5-1c0.7-0.6,0.7-0.7,1.8-2.1l0.4-0.5C49.3,21.7,82.3,4.4,117.5,4.4c1.1,0,2.2,0.1,3.3,0.1
		C112.4,20.9,108,39.4,108,57.9s4.4,37,12.8,53.4c-1.1,0.1-2.2,0.1-3.3,0.1C82.2,111.4,49.2,94.1,29.3,65z"/>
	<path class="st1" d="M117.5,4.9c0.8,0,1.7,0,2.7-0.2c-8.2,16.3-12.5,34.6-12.5,53s4.3,36.7,12.5,53c-0.8,0-1.7,0-2.5,0
		c-35.1,0-68-17.3-88-46.1c-0.7-1-1.3-1.6-2.2-2.4c-0.8-0.7-1.5-1.2-2.9-1.3c-0.1,0-0.2,0-0.3,0c-1.8,0-3.5,1.1-4.5,2.8
		c-0.1,0.2-0.1,0.3-0.2,0.4l-0.2,0.2v0.2c-3,6.3-5.4,12.9-7.2,19.7c-0.1,0.5-0.3,1-0.4,1.5c-0.2,1.2-1,2.1-1.9,2.4
		c-0.4,0.1-0.8,0.2-1.2,0.2c-1.2,0-2.7-1.4-3.3-2.7c-0.1-0.2-0.2-0.3-0.2-0.4c-0.1,0-0.1-0.1-0.1-0.2c-2.3-8.8-3.5-18-3.5-27.2
		c0-9.7,1.3-19.3,3.9-28.6c0.2-0.5,0.3-1.1,0.5-1.7c0.2-0.8,0.6-1.4,1.2-1.7c0.5-0.3,1.2-0.5,1.8-0.5c0.9,0,1.8,0.7,2,1.6
		c0.3,1.4,0.7,2.8,1,4.2c1.7,6.7,4.2,13.4,7.2,19.7c0.2,0.6,0.4,0.9,0.8,1.6c0.9,1.4,2.5,2.3,4,2.3c0.2,0,0.4,0,0.6,0
		c1.3-0.1,1.8-0.4,2.7-1.1c0.7-0.6,0.8-0.8,1.9-2.2l0.4-0.5C49.6,22.1,82.5,4.9,117.5,4.9 M117.5,3.9c-36.8,0-69.3,18.4-88.9,46.5
		c-1.4,1.9-1.4,1.9-2.1,2.5c-0.7,0.6-1.1,0.7-2.2,0.9c-0.1,0-0.3,0-0.4,0c-1.3,0-2.5-0.8-3.2-1.8c-0.4-0.6-0.5-0.9-0.7-1.5
		c-2.9-6.2-5.3-12.8-7.1-19.6c-0.4-1.3-0.7-2.7-1-4.1s-1.5-2.4-3-2.4c-0.8,0-1.6,0.3-2.3,0.7c-0.8,0.5-1.3,1.3-1.6,2.2
		c-0.2,0.6-0.3,1.2-0.5,1.8C2,38.3,0.6,48,0.6,58c0,9.4,1.2,18.6,3.5,27.4c0.1,0.5,0.1,0.2,0.2,0.7c0.7,1.6,2.4,3.4,4.2,3.4
		c0.5,0,1-0.1,1.5-0.3c1.4-0.5,2.3-1.7,2.6-3.1c0.1-0.5,0.3-1,0.4-1.5c1.7-6.9,4.2-13.5,7.2-19.7l0,0c0-0.2,0.1-0.3,0.2-0.5
		c0.8-1.3,2.1-2.3,3.7-2.3c0.1,0,0.2,0,0.3,0c1.1,0.1,1.6,0.5,2.3,1.1c0.8,0.7,1.3,1.3,2,2.2c19.5,28.1,52,46.5,88.8,46.5
		c1.3,0,2.6-0.1,3.8-0.1c0.2,0,0.3-0.1,0.2-0.3c-8.3-16.1-13-34.3-13-53.6s4.7-37.6,13-53.6c0.1-0.1,0-0.3-0.2-0.3
		C120,3.9,118.8,3.9,117.5,3.9L117.5,3.9z"/>
</g>
<g>
	<path d="M43.3-247.1c1.9,0,3.5,1.6,3.5,3.5s-1.6,3.5-3.5,3.5s-3.5-1.6-3.5-3.5S41.4-247.1,43.3-247.1 M43.3-248.1
		c-2.5,0-4.5,2-4.5,4.5s2,4.5,4.5,4.5s4.5-2,4.5-4.5S45.8-248.1,43.3-248.1L43.3-248.1z"/>
</g>
<g>
	<path d="M106.3-337.1c42.1,0,80.4,24.8,97.6,63.2c1.4,3.1,2.7,6.3,3.7,9.6c-0.6-0.2-1.2-0.3-1.8-0.3c-1.2,0-2.4,0.4-3.3,1.1
		l-0.3,0.2l-0.1,0.4c-0.4,1.9-0.8,3.8-1.3,5.6c-1.7,6.6-4.1,13.2-7.1,19.4v0.1v0.1c-0.1,0.4-0.3,0.8-0.6,1.1
		c-0.6,0.9-1.7,1.4-2.8,1.4c-0.7,0-1.4-0.2-2-0.7c-0.7-0.5-1.2-1.2-1.4-2v-0.2l-0.1-0.2c-20.4-29.3-53.9-46.9-89.6-46.9
		c-1.4,0-2.8,0-4.2,0.1c-3.2,0.1-6.6,0.4-9.9,0.8c-16.7,2.1-32.9,8.3-46.8,17.7C22.6-257.4,11-245,2.8-230.7l-0.3,0.5l0.3,0.5
		c8.2,14.3,19.8,26.7,33.5,35.9c14,9.4,30.2,15.5,46.8,17.7c3.3,0.4,6.7,0.7,9.9,0.8c1.4,0.1,2.8,0.1,4.2,0.1
		c35.7,0,69.2-17.5,89.6-46.9l0.1-0.1v-0.2c0.2-0.7,0.6-1.3,1.2-1.8c0.6-0.5,1.4-0.8,2.2-0.8c1.3,0,2.4,0.7,3,1.8
		c0,0.1,0.1,0.1,0.1,0.2l0,0l0.1,0.2l0,0l0.1,0.2l0,0c3,6.2,5.4,12.7,7.1,19.4c0.2,0.9,0.5,1.8,0.6,2.6v0.2l0.1,0.1
		c1,1.6,2.8,2.6,4.7,2.6c0.7,0,1.4-0.1,2.1-0.4c-1.2,4-2.7,7.9-4.4,11.7c-17.3,38.4-55.6,63.2-97.6,63.2c-17.2,0-34.3-4.2-49.4-12.1
		c-2.9-1.5-5.8-3.2-8.6-5c-13.4-8.7-24.9-20.4-33.3-34C6.2-188.4,1.1-204-0.4-220.5c-0.3-3.2-0.4-6.5-0.4-9.7s0.1-6.5,0.4-9.7
		c1.5-16.5,6.6-32.1,15.3-46.2c8.4-13.6,19.9-25.4,33.3-34c2.8-1.8,5.6-3.5,8.6-5C72-332.9,89.1-337.1,106.3-337.1 M106.3-338.1
		c-18,0-34.9,4.4-49.9,12.2c-3,1.5-5.9,3.2-8.6,5c-27.2,17.6-46,47-49.1,81c-0.3,3.2-0.4,6.5-0.4,9.8s0.2,6.6,0.4,9.8
		c3,34,21.8,63.5,49.1,81c2.8,1.8,5.7,3.5,8.6,5c14.9,7.8,31.9,12.2,49.9,12.2c43.9,0,81.7-26.2,98.6-63.8c2.2-4.9,4.1-10,5.5-15.3
		c-0.7,1.5-2.3,2.6-4.1,2.6c-1.6,0-3-0.9-3.8-2.1c-0.2-0.9-0.4-1.8-0.7-2.7c-1.8-6.9-4.2-13.4-7.2-19.7l0,0
		c-0.1-0.2-0.1-0.3-0.2-0.5c-0.8-1.4-2.2-2.3-3.9-2.3c-1,0-2,0.4-2.8,1c-0.7,0.6-1.3,1.4-1.5,2.3c-19.5,28.1-52,46.5-88.8,46.5
		c-1.4,0-2.8,0-4.1-0.1c-3.3-0.1-6.6-0.4-9.8-0.8c-34.1-4.4-63.2-24.6-79.6-53.1c16.5-28.5,45.5-48.7,79.6-53.1
		c3.2-0.4,6.5-0.7,9.8-0.8c1.4-0.1,2.8-0.1,4.1-0.1c36.8,0,69.2,18.4,88.7,46.4c0.2,1.1,0.9,2,1.8,2.6c0.7,0.5,1.6,0.8,2.6,0.8
		c1.5,0,2.8-0.7,3.6-1.8c0.3-0.4,0.6-0.9,0.7-1.5c3-6.2,5.4-12.8,7.1-19.6c0.5-1.9,0.9-3.8,1.3-5.6c0.8-0.6,1.7-0.9,2.7-0.9
		c1.5,0,2.9,0.8,3.7,2c-1.3-4.3-2.9-8.5-4.7-12.6C187.9-311.9,150.2-338.1,106.3-338.1L106.3-338.1z"/>
</g>
<g>
	<path d="M186-237.7c0.2,1.1,0.9,2,1.8,2.6C187.2-235.9,186.6-236.8,186-237.7L186-237.7z"/>
</g>
<g>
	<path d="M43.3-247.1c1.9,0,3.5,1.6,3.5,3.5s-1.6,3.5-3.5,3.5s-3.5-1.6-3.5-3.5S41.4-247.1,43.3-247.1 M43.3-248.1
		c-2.5,0-4.5,2-4.5,4.5s2,4.5,4.5,4.5s4.5-2,4.5-4.5S45.8-248.1,43.3-248.1L43.3-248.1z"/>
</g>
<g>
	<path d="M3.8-228.1c8.2,13.6,19.4,25.5,32.6,34.4c14,9.4,30.2,15.5,46.8,17.7c3.3,0.4,6.7,0.7,9.9,0.8c1.4,0.1,2.8,0.1,4.2,0.1
		c35.7,0,69.2-17.5,89.6-46.9l0.1-0.1v-0.2c0.2-0.7,0.6-1.3,1.2-1.8c0.6-0.5,1.4-0.8,2.2-0.8c1.3,0,2.4,0.7,3,1.8
		c0,0.1,0.1,0.1,0.1,0.2l0,0l0.1,0.2l0,0l0.1,0.2l0,0c3,6.2,5.4,12.7,7.1,19.4c0.2,0.9,0.5,1.8,0.7,2.6c1.1,4.8,1.9,9.7,2.4,14.7
		c0.3,3.2,0.4,6.5,0.4,9.7c0,28.6-11.1,55.5-31.3,75.7s-47.1,31.3-75.7,31.3c-35.1,0-68-17.2-88-46.1c-1.9-2.7-3.6-5.5-5.2-8.3
		c-9-16-13.8-34.1-13.8-52.6c0-15.3,3.1-30,9.4-43.8C0.9-222.7,2.3-225.5,3.8-228.1 M3.7-230.1c-1.8,3.2-3.5,6.4-5,9.8
		c-6.1,13.5-9.4,28.5-9.4,44.2c0,19.3,5.1,37.4,13.9,53.1c1.6,2.9,3.4,5.6,5.2,8.3c19.5,28.1,52,46.6,88.8,46.6
		c59.7,0,108-48.4,108-108c0-3.3-0.2-6.6-0.4-9.8c-0.5-5.1-1.2-10-2.4-14.8c-0.2-0.9-0.4-1.8-0.7-2.7c-1.8-6.9-4.2-13.4-7.2-19.7
		l0,0c-0.1-0.2-0.1-0.3-0.2-0.5c-0.8-1.4-2.2-2.3-3.9-2.3c-1,0-2,0.4-2.8,1c-0.7,0.6-1.3,1.4-1.5,2.3c-19.5,28.1-52,46.5-88.8,46.5
		c-1.4,0-2.8,0-4.1-0.1c-3.3-0.1-6.6-0.4-9.8-0.8C49.3-181.4,20.2-201.6,3.7-230.1L3.7-230.1z"/>
</g>
<g>
	<path class="st2" d="M113.2,58.1c0-18.4,4.4-36.7,12.7-52.9c3,0.1,6,0.4,9.1,0.8c32.6,4.2,61.9,23.6,78.6,52.1
		c-16.7,28.5-46,47.9-78.6,52.1c-3.1,0.4-6.1,0.7-9.1,0.8C117.6,94.8,113.2,76.5,113.2,58.1z M171.1,41c-1.1,1.3-1.5,2.9-1.3,4.5
		c0.4,2.6,2.7,4.6,5.4,4.6c0.9,0,1.8-0.2,2.7-0.7c0.9-0.5,1.6-1.2,2.1-2.1c0.9-1.6,1-3.5,0.2-5.1s-2.4-2.7-4.1-3
		c-0.3-0.1-0.6-0.1-0.9-0.1C173.6,39.1,172,39.8,171.1,41z"/>
	<path class="st1" d="M126.5,6.2c2.7,0.2,5.5,0.4,8.4,0.8c16.2,2.1,31.9,8,45.4,17.3c13,8.7,24,20.4,32,33.9
		c-8,13.4-19,25.1-32,33.9c-13.5,9.2-29.3,15.1-45.5,17.2c-2.8,0.3-5.6,0.6-8.3,0.7c-8.1-16-12.3-33.8-12.3-51.9
		S118.4,22.1,126.5,6.2 M175.1,51.1c1.1,0,2.2-0.3,3.1-0.9c1.1-0.6,1.9-1.5,2.5-2.5c1-1.9,1.1-4.1,0.2-6c-0.9-1.9-2.7-3.3-4.8-3.6
		c-0.3-0.1-0.7-0.1-1-0.1c-1.9,0-3.7,0.9-4.9,2.3c-1.2,1.5-1.8,3.4-1.5,5.3C169.2,48.7,172,51.1,175.1,51.1 M125.3,4.2
		c-8.4,16.1-13.1,34.5-13.1,53.9s4.7,37.8,13.1,53.9c3.3-0.1,6.6-0.4,9.8-0.8c34-4.4,63.1-24.6,79.6-53.1
		C198.3,29.6,169.2,9.4,135.1,5C131.9,4.6,128.6,4.3,125.3,4.2L125.3,4.2z M175.1,49.1c-2.2,0-4.1-1.7-4.5-3.8
		c-0.4-2.8,1.8-5.2,4.5-5.2c0.2,0,0.5,0.1,0.7,0.1c2.8,0.4,4.9,3.6,3.2,6.6c-0.4,0.7-1,1.3-1.7,1.7
		C176.6,48.9,175.8,49.1,175.1,49.1L175.1,49.1z"/>
</g>
<g>
	<path d="M43.3-247.1c1.9,0,3.5,1.6,3.5,3.5s-1.6,3.5-3.5,3.5s-3.5-1.6-3.5-3.5S41.4-247.1,43.3-247.1 M43.3-248.1
		c-2.5,0-4.5,2-4.5,4.5s2,4.5,4.5,4.5s4.5-2,4.5-4.5S45.8-248.1,43.3-248.1L43.3-248.1z"/>
</g>
<g>
	<path d="M-10.7-346.1c6.4,0,12.8,0.5,19,1.6c17.2,2.8,33.2,9.4,47.6,19.4C70.7-314.7,83-300.9,91.5-285c-2.7,0.1-5.5,0.4-8.3,0.8
		c-16.7,2.1-32.9,8.3-46.8,17.7c-13.7,9.2-25.3,21.6-33.5,35.9l-0.3,0.5l0.3,0.5c8.2,14.3,19.8,26.7,33.5,35.9
		c14,9.4,30.2,15.5,46.8,17.7c2.8,0.4,5.6,0.6,8.3,0.8C83-159.3,70.6-145.4,55.8-135c-14.3,10-30.3,16.5-47.5,19.3
		c-6.2,1-12.6,1.6-19,1.6c-31,0-60.1-12.1-82-34s-34-51-34-82s12.1-60.1,34-82S-41.7-346.1-10.7-346.1 M-10.7-347.1
		c-64.6,0-117,52.4-117,117s52.4,117,117,117c6.5,0,12.9-0.5,19.2-1.6c17.6-2.9,33.9-9.8,48-19.6c15.4-10.8,28-25.2,36.7-41.9
		c-3.3-0.1-6.6-0.4-9.8-0.8c-34.1-4.4-63.2-24.6-79.6-53.1c16.5-28.5,45.5-48.7,79.6-53.1c3.2-0.4,6.5-0.7,9.8-0.8
		c-8.7-16.8-21.4-31.1-36.7-41.9c-14-9.9-30.3-16.7-48-19.6C2.2-346.6-4.2-347.1-10.7-347.1L-10.7-347.1z"/>
</g>
<g>
	<path d="M43.4-247.2c2,0,3.6,1.6,3.6,3.5s-1.6,3.5-3.6,3.5s-3.6-1.6-3.6-3.5S41.4-247.2,43.4-247.2 M43.4-248.2
		c-2.5,0-4.6,2-4.6,4.5s2,4.5,4.6,4.5c2.5,0,4.6-2,4.6-4.5C47.9-246.2,45.9-248.2,43.4-248.2L43.4-248.2z"/>
</g>
<g>
	<path d="M190.4-242.2c1.9,0,3.5,1.6,3.5,3.5c0,0.3,0,0.6-0.1,0.9c-0.1,0.4-0.3,0.8-0.6,1.1c-0.6,0.9-1.7,1.4-2.8,1.4
		c-0.7,0-1.4-0.2-2-0.7c-0.7-0.5-1.2-1.2-1.4-2.1c-0.1-0.2-0.1-0.5-0.1-0.8C186.9-240.6,188.5-242.2,190.4-242.2 M190.4-243.2
		c-2.5,0-4.5,2-4.5,4.5c0,0.4,0,0.7,0.1,1c0.2,1.1,0.9,2,1.8,2.6c0.7,0.5,1.6,0.8,2.6,0.8c1.5,0,2.8-0.7,3.6-1.8
		c0.3-0.4,0.6-0.9,0.7-1.5c0.1-0.4,0.2-0.8,0.2-1.2C194.9-241.2,192.9-243.2,190.4-243.2L190.4-243.2z"/>
</g>
<g>
	<path d="M203.2-262.7c-1.1,0.8-1.8,2.1-1.8,3.6c0,0.7,0.2,1.4,0.5,2.1C202.4-259,202.8-260.8,203.2-262.7L203.2-262.7z"/>
</g>
<g>
	<path d="M209.6-261.7c0.3,0.9,0.6,1.8,0.8,2.7c0,0,0-0.1,0-0.2C210.4-260.1,210.1-261,209.6-261.7L209.6-261.7z"/>
</g>
<g>
	<path d="M201.8-203.4c0,0.1,0,0.2,0,0.3c0,0.9,0.2,1.7,0.7,2.4C202.3-201.6,202-202.5,201.8-203.4L201.8-203.4z"/>
</g>
<g>
	<path d="M210.8-202.7c-0.1,0.5-0.3,1-0.4,1.5C210.6-201.7,210.7-202.2,210.8-202.7L210.8-202.7z"/>
</g>
<g>
	<path d="M190.4-224.9c1.3,0,2.4,0.7,3,1.8c0.1,0.1,0.1,0.3,0.2,0.4l0,0c0.2,0.4,0.3,0.9,0.3,1.3c0,1.9-1.6,3.5-3.5,3.5
		s-3.5-1.6-3.5-3.5c0-0.3,0-0.7,0.1-1c0.2-0.7,0.6-1.3,1.2-1.8C188.8-224.6,189.6-224.9,190.4-224.9 M190.4-225.9c-1,0-2,0.4-2.8,1
		c-0.7,0.6-1.3,1.4-1.5,2.3c-0.1,0.4-0.2,0.8-0.2,1.2c0,2.5,2,4.5,4.5,4.5s4.5-2,4.5-4.5c0-0.6-0.1-1.2-0.3-1.8l0,0
		c-0.1-0.2-0.1-0.3-0.2-0.5C193.5-224.9,192.1-225.9,190.4-225.9L190.4-225.9z"/>
</g>
</svg>
