<?xml version="1.0" encoding="utf-8"?>
<!-- Generator: Adobe Illustrator 26.3.1, SVG Export Plug-In . SVG Version: 6.00 Build 0)  -->
<svg version="1.1" id="Layer_1" xmlns="http://www.w3.org/2000/svg" xmlns:xlink="http://www.w3.org/1999/xlink" x="0px" y="0px"
	 viewBox="0 0 213 107.9" style="enable-background:new 0 0 213 107.9;" xml:space="preserve">
<style type="text/css">
	.st0{fill:#006600;}
	.st1{fill:#FFFFFF;}
	.st2{fill:#33CC33;}
</style>
<g>
	<path d="M-722.8-36.7c19.3,0,35,15.7,35,35s-15.7,35-35,35s-35-15.7-35-35S-742.1-36.7-722.8-36.7 M-722.8-37.7
		c-19.9,0-36,16.1-36,36s16.1,36,36,36s36-16.1,36-36S-702.9-37.7-722.8-37.7L-722.8-37.7z"/>
</g>
<g>
	<path d="M-722.8-72.7c39.1,0,71,31.9,71,71s-31.9,71-71,71s-71-31.9-71-71S-762-72.7-722.8-72.7 M-722.8-73.7
		c-39.8,0-72,32.2-72,72s32.2,72,72,72s72-32.2,72-72S-683.1-73.7-722.8-73.7L-722.8-73.7z"/>
</g>
<g>
	<path d="M-722.8-108.7c28.6,0,55.5,11.1,75.7,31.3s31.3,47.1,31.3,75.7s-11.1,55.5-31.3,75.7s-47.1,31.3-75.7,31.3
		s-55.5-11.1-75.7-31.3s-31.3-47.1-31.3-75.7s11.1-55.5,31.3-75.7S-751.4-108.7-722.8-108.7 M-722.8-109.7c-59.6,0-108,48.4-108,108
		s48.4,108,108,108s108-48.4,108-108S-663.2-109.7-722.8-109.7L-722.8-109.7z"/>
</g>
<g>
	<path d="M-326.8-55.5c4.7,0,9.4,0.3,13.9,0.9c16.5,2.1,32.6,8.2,46.4,17.6c-28.9,19.9-46.5,52.6-47,87.6v0.1v0.1
		c0.3,0.5,0.6,1,0.9,1.5c-0.3,0.5-0.6,1-0.9,1.5v0.1V54c0.5,35,18.1,67.8,47,87.6c-13.8,9.4-29.9,15.4-46.4,17.6
		c-4.5,0.6-9.2,0.9-13.9,0.9c-28.8,0-55.8-11.2-76.2-31.6c-20.4-20.4-31.6-47.4-31.6-76.2s11.2-55.8,31.6-76.2
		C-382.7-44.3-355.6-55.5-326.8-55.5 M-326.8-55.7c-59.7,0-108,48.3-108,108c0,59.6,48.3,108,108,108c4.7,0,9.4-0.3,13.9-0.9
		c17.2-2.2,33.1-8.5,46.8-17.8c-28.1-19.2-46.7-51.2-47.2-87.7c0.3-0.5,0.6-1.1,0.9-1.6c-0.3-0.5-0.6-1.1-0.9-1.7
		c0.5-36.4,19.1-68.5,47.2-87.6c-13.7-9.3-29.6-15.6-46.8-17.8C-317.4-55.4-322.1-55.7-326.8-55.7L-326.8-55.7z"/>
</g>
<g>
	<path class="st0" d="M121.5,107c-0.2,0-16.3-0.1-31.8-4.7c-26.5-8.1-46.3-29.1-51.8-35.4c-0.1-0.2-3.9-4.3-8.1-4.6
		c-0.1,0-0.3,0-0.5,0c-4.3,0-8.6,3.8-10,7.4c-2.3,6-4,12.1-5.1,18.3c-0.1,0.5-0.2,1.1-0.3,1.7c-0.1,1-0.6,1.7-1.3,2.2
		c-0.6,0.4-1.3,0.6-2,0.6c-1.3,0-2.2-0.3-3.3-2.4c-0.1-0.2-0.1-0.4-0.2-0.6C3,77.9,0.9,66,0.9,54c0-12.1,2-24,6-35.3l0.3-0.8
		c0.2-0.5,0.5-1.2,1.2-1.7c0.6-0.4,1.4-0.7,2.2-0.7c0.3,0,0.6,0,0.9,0.1c1.2,0.3,2.2,1.4,2.5,2.9c0.1,0.5,0.2,1,0.3,1.4
		c1.2,6.5,3.1,13,5.5,19.3v0.1c1.5,3.9,5.4,6.6,9.6,6.6c2.4,0,4.7-0.9,6.6-2.4c0.7-0.5,1.4-1.2,1.9-2c0.5-0.6,0.5-0.6,0.7-0.9
		c0.3-0.3,0.8-0.9,2.2-2.8C58.3,14.7,88.4,1,121.5,1c4.1,0,8.3,0.2,12.3,0.7c-8.7,15.9-13.3,34-13.3,52.3s4.6,36.4,13.3,52.3
		C129.8,106.8,125.7,107,121.5,107L121.5,107z"/>
	<path class="st1" d="M121.5,2c3.6,0,7.2,0.2,10.8,0.5C123.9,18.3,119.5,36,119.5,54s4.4,35.7,12.7,51.6c-3.6,0.3-7.2,0.5-10.8,0.5
		c-0.2,0-16.2-0.1-31.3-4.7c-26.3-8.1-45.9-28.9-51.3-35.1l0,0c-0.4-0.5-1.2-1.3-2.6-2.3c-2.1-1.6-4.2-2.5-6.2-2.6
		c-0.2,0-0.4,0-0.6,0c-4.8,0-9.3,4.1-10.9,8l0,0l0,0c-2.2,6-4,12.3-5.1,18.5c-0.1,0.5-0.2,1.1-0.3,1.7c-0.1,0.7-0.4,1.2-0.9,1.5
		s-1,0.4-1.5,0.4c-0.9,0-1.5-0.1-2.4-1.9c-0.1-0.1-0.2-0.3-0.2-0.4l0,0l0,0C4.1,77.8,1.9,66,1.9,54.1c0-12,2-23.8,5.9-35
		c0.1-0.3,0.2-0.5,0.3-0.8c0.2-0.4,0.4-1,0.9-1.3s1-0.5,1.6-0.5c0.2,0,0.4,0,0.6,0.1c0.9,0.2,1.6,1,1.8,2.1c0.1,0.5,0.2,0.9,0.3,1.4
		c1.2,6.6,3.1,13.1,5.5,19.4v0.1l0,0l0,0v0.1c1.7,4.4,6,7.3,10.6,7.3c2.6,0,5.2-0.9,7.2-2.6l0.1-0.1l0,0c0.8-0.7,1.4-1.4,2-2.2
		c0.4-0.6,0.4-0.6,0.6-0.9s0.8-0.9,2.2-2.8C58.9,15.6,88.7,2,121.5,2 M121.5,0C89,0,58.2,13.1,39.9,37.2C37,41,37.9,39.7,37,41
		c-0.5,0.7-1.1,1.4-1.7,1.9l0,0c-1.6,1.3-3.7,2.1-5.9,2.1c-4,0-7.3-2.5-8.7-6c0-0.1-0.1-0.1-0.1-0.2c-2.4-6.1-4.2-12.5-5.4-19.1
		c0-0.5-0.1-0.9-0.2-1.4c-0.3-1.7-1.5-3.3-3.3-3.7c-0.3-0.1-0.7-0.1-1.1-0.1c-1,0-2,0.3-2.8,0.9c-0.7,0.5-1.2,1.3-1.5,2.2
		c-0.1,0.3-0.2,0.5-0.3,0.8c-3.9,11.1-6,23.1-6,35.6c0,12.6,2.2,24.5,6.2,35.8c0,0.2,0.1,0.4,0.2,0.6c1.2,2.2,2.3,3,4.2,3
		c0.9,0,1.8-0.3,2.5-0.8c1-0.6,1.6-1.7,1.8-2.8c0.1-0.6,0.2-1.1,0.3-1.7c1.1-6.2,2.8-12.3,5-18.1l0,0c1.4-3.4,5.4-6.7,9.1-6.7
		c0.2,0,0.3,0,0.5,0c3.9,0.3,7.5,4.2,7.5,4.2c3.8,4.5,24,27.1,52.2,35.7c15.6,4.8,31.9,4.8,31.9,4.8c4.7,0,9.3-0.3,13.9-0.9
		c-8.8-15.7-13.9-33.8-13.9-53.1s5.1-37.4,13.9-53.1C130.9,0.3,126.2,0,121.5,0L121.5,0z"/>
</g>
<g>
	<path d="M-135.2,38c0.6,1.2,1.4,2.2,2.4,3.1C-133.5,40-134.3,39-135.2,38L-135.2,38z"/>
</g>
<g>
	<path d="M-112.2,15.3c-0.3,0.6-0.5,1.3-0.5,2.1c0,0.2,0,0.4,0,0.5C-112.5,17.1-112.3,16.2-112.2,15.3L-112.2,15.3z"/>
</g>
<g>
	<path d="M-313.1,51.6c0.1,0.2,0.3,0.5,0.4,0.7c-0.1,0.2-0.3,0.5-0.4,0.7c0-0.2,0-0.5,0-0.7S-313.1,51.8-313.1,51.6 M-313.3,50.6
		c0,0.5,0,1.1,0,1.7s0,1.1,0,1.6c0.3-0.5,0.6-1.1,0.9-1.6C-312.7,51.7-313,51.2-313.3,50.6L-313.3,50.6z"/>
</g>
<g>
	<path d="M-133.2,64.1c-0.8,0.7-1.4,1.5-1.9,2.4C-134.4,65.7-133.8,64.9-133.2,64.1L-133.2,64.1z"/>
</g>
<g>
	<path d="M-112.7,86.4c0,0.2,0,0.4,0,0.6c0,0.8,0.2,1.5,0.5,2.2C-112.3,88.3-112.5,87.4-112.7,86.4L-112.7,86.4z"/>
</g>
<g>
	<path d="M-133.2,64.1c-0.8,0.7-1.4,1.5-1.9,2.4C-134.4,65.7-133.8,64.9-133.2,64.1L-133.2,64.1z"/>
</g>
<g>
	<path d="M-205.3-55.5c39.1,0,75.3,21.3,94.3,55.5c2.5,4.4,4.6,9,6.4,13.7c-0.9-0.8-2.1-1.3-3.3-1.3c-1.9,0-3.6,1.1-4.4,2.8
		c-0.3,0.7-0.5,1.4-0.5,2.2c0,0.2,0,0.4,0,0.5c-1.2,6.5-3,12.9-5.3,19c0,0.1-0.1,0.1-0.1,0.2c-1.3,3.5-4.8,5.8-8.5,5.8
		c-2.1,0-4.2-0.7-5.8-2c-0.8-1-1.6-2.1-2.4-3.1C-155.6,12.5-186.2-2-218.8-2c-4.7,0-9.4,0.3-14,0.9c-16.6,2.1-32.6,8.2-46.5,17.6
		c-13.5,9.1-24.9,21.3-33.1,35.3c-0.2-0.4-0.5-0.8-0.7-1.2c0.5-35,18.2-67.6,47.1-87.4C-248-49-227.1-55.5-205.3-55.5 M-205.3-55.7
		c-22.5,0-43.4,6.9-60.8,18.7c-28.1,19.1-46.7,51.2-47.2,87.6c0.3,0.5,0.6,1.1,0.9,1.7c16.5-28.5,45.5-48.7,79.6-53.1
		c4.6-0.6,9.2-0.9,13.9-0.9c33.7,0,63.9,15.5,83.7,39.7c0.8,1,1.6,2,2.4,3.1l0,0c1.6,1.3,3.7,2.1,5.9,2.1c4,0,7.4-2.5,8.7-6
		c0-0.1,0-0.1,0.1-0.2c2.3-6.1,4.2-12.5,5.4-19.1c0-0.2,0-0.4,0-0.5c0-0.8,0.2-1.5,0.5-2.1c0.8-1.6,2.4-2.6,4.2-2.6
		c1.7,0,3.3,0.9,4.1,2.4c-1.9-5.3-4.3-10.3-6.9-15.2C-129.3-33.3-164.7-55.7-205.3-55.7L-205.3-55.7z"/>
</g>
<g>
	<path d="M-135.2,38c0.6,1.2,1.4,2.2,2.4,3.1C-133.5,40-134.3,39-135.2,38L-135.2,38z"/>
</g>
<g>
	<path d="M-112.2,15.3c-0.3,0.6-0.5,1.3-0.5,2.1c0,0.2,0,0.4,0,0.5C-112.5,17.1-112.3,16.2-112.2,15.3L-112.2,15.3z"/>
</g>
<g>
	<path d="M-218.8-109.5c28.8,0,55.8,11.2,76.2,31.6S-111-30.5-111-1.7c0,0.2,0,0.5,0,0.7c-19.2-33.9-55.2-55-94.2-55
		c-21.8,0-42.9,6.5-60.9,18.7c-28.9,19.7-46.5,52.1-47.3,86.9c-8.5-15.7-13-33.4-13-51.4c0-18.6,4.8-36.9,13.9-53
		c9.2-16.3,22.6-30,38.8-39.7C-257.3-104.3-238.3-109.5-218.8-109.5 M-218.8-109.7c-40.3,0-75.5,22.1-94.1,54.9
		c-8.9,15.7-13.9,33.8-13.9,53.1c0,19,4.9,36.8,13.5,52.3c0.5-36.4,19.1-68.5,47.2-87.6c17.3-11.8,38.2-18.7,60.8-18.7
		c40.7,0,76.1,22.5,94.5,55.6c0-0.5,0-1.1,0-1.6C-110.8-61.4-159.2-109.7-218.8-109.7L-218.8-109.7z"/>
</g>
<g>
	<path d="M-135.2,38c0.6,1.2,1.4,2.2,2.4,3.1C-133.5,40-134.3,39-135.2,38L-135.2,38z"/>
</g>
<g>
	<path class="st2" d="M122.5,54c0-18.2,4.7-36.2,13.5-52c30.1,4,57.1,20.8,74.2,46.1c2.4,3.5,2.4,8.2,0,11.7
		C193.1,85.2,166.1,102,136,106C127.2,90.2,122.5,72.2,122.5,54z M175.3,42.8c-0.6,0.8-0.9,1.9-0.6,3c0.3,1.2,1.3,2.2,2.5,2.4
		c0.3,0.1,0.6,0.1,0.9,0.1c1.1,0,2.2-0.5,2.8-1.3c0.6-0.8,0.9-1.9,0.6-3c-0.3-1.2-1.3-2.2-2.5-2.5c-0.3-0.1-0.6-0.1-0.9-0.1
		C177,41.4,176,41.9,175.3,42.8z"/>
	<path class="st1" d="M136.5,3.1c29.6,4.2,56.1,20.7,72.9,45.6c2.1,3.2,2.1,7.4,0,10.6c-16.9,24.8-43.3,41.4-72.9,45.6
		c-8.5-15.5-13-33.1-13-50.9S128,18.6,136.5,3.1 M178.1,49.4c1.4,0,2.7-0.6,3.5-1.7c0.8-1.1,1.1-2.5,0.8-3.9
		c-0.4-1.6-1.7-2.9-3.3-3.3c-0.4-0.1-0.7-0.1-1.1-0.1l0,0c-1.4,0-2.6,0.6-3.5,1.7c-0.8,1.1-1.1,2.5-0.8,3.9c0.4,1.6,1.7,2.9,3.3,3.3
		C177.4,49.4,177.7,49.4,178.1,49.4 M135.4,0.9c-8.8,15.7-13.9,33.8-13.9,53.1s5.1,37.4,13.9,53.1c31.4-4.1,58.7-21.6,75.6-46.7
		c2.6-3.8,2.6-8.9,0-12.8C194.1,22.5,166.9,4.9,135.4,0.9L135.4,0.9z M178.1,47.4c-0.2,0-0.4,0-0.6-0.1c-0.9-0.2-1.6-0.9-1.8-1.8
		c-0.4-1.6,0.8-3.1,2.4-3.1c0.2,0,0.4,0,0.6,0.1c0.9,0.2,1.6,0.9,1.8,1.8C180.9,45.9,179.7,47.4,178.1,47.4L178.1,47.4z"/>
</g>
<g>
	<path d="M-312.4,52.8c8.2,14,19.6,26.2,33.1,35.3c13.9,9.4,29.9,15.4,46.5,17.6c4.5,0.6,9.3,0.9,14,0.9c32.7,0,63.3-14.5,83.9-39.9
		c0.6-0.7,1.2-1.6,1.9-2.4c1.7-1.6,3.9-2.5,6.3-2.5c3.6,0,6.9,2.1,8.4,5.4c0.1,0.4,0.3,0.7,0.4,1.1l0,0l0,0c2.2,5.9,3.9,11.9,5,18
		c0,0.2,0,0.4,0,0.6c0,0.8,0.2,1.6,0.6,2.3c0.8,1.7,2.5,2.7,4.4,2.7c1.3,0,2.5-0.5,3.4-1.3c-1.8,4.8-4,9.4-6.4,13.8v0.1v0.1
		c0,0.5,0,1.1,0,1.6c0,28.8-11.2,55.8-31.6,76.2C-163,202.8-190,214-218.8,214c-19.4,0-38.5-5.2-55.1-15.1
		c-16-9.5-29.3-23.1-38.6-39.3c16.6-2.2,32.7-8.3,46.5-17.8l0.3-0.2l-0.3-0.2c-29-19.7-46.6-52.4-47.1-87.4
		C-312.8,53.6-312.6,53.2-312.4,52.8 M-312.4,52.3c-0.3,0.5-0.6,1.1-0.9,1.6c0.5,36.4,19.1,68.5,47.2,87.7
		c-13.7,9.3-29.6,15.6-46.8,17.8c18.5,32.8,53.7,54.9,94.1,54.9c59.7,0,108-48.4,108-108c0-0.5,0-1.1,0-1.7c2.8-5,5.2-10.2,7.1-15.7
		c-0.7,1.6-2.4,2.8-4.3,2.8c-1.8,0-3.4-1-4.2-2.5c-0.3-0.7-0.5-1.4-0.5-2.2c0-0.2,0-0.4,0-0.6c-1.1-6.2-2.8-12.3-5-18.1l0,0
		c-0.1-0.4-0.3-0.7-0.4-1.1c-1.5-3.3-4.8-5.6-8.6-5.6c-2.5,0-4.7,1-6.4,2.5c-0.6,0.8-1.2,1.6-1.9,2.4c-19.8,24.3-50,39.8-83.7,39.8
		c-4.7,0-9.4-0.3-13.9-0.9C-266.8,101-295.9,80.7-312.4,52.3L-312.4,52.3z"/>
</g>
<g>
	<path d="M-133.2,64.1c-0.8,0.7-1.4,1.5-1.9,2.4C-134.4,65.7-133.8,64.9-133.2,64.1L-133.2,64.1z"/>
</g>
<g>
	<path d="M-112.7,86.4c0,0.2,0,0.4,0,0.6c0,0.8,0.2,1.5,0.5,2.2C-112.3,88.3-112.5,87.4-112.7,86.4L-112.7,86.4z"/>
</g>
<g>
	<path d="M-313.5,54.9c0.8,34.7,18.3,67,47,86.7c-13.8,9.3-29.8,15.4-46.2,17.5c-9-16-13.8-34.3-13.8-52.8
		C-326.6,88.3-322.1,70.5-313.5,54.9 M-313.3,53.9c-8.6,15.5-13.5,33.4-13.5,52.4c0,19.3,5.1,37.4,13.9,53.1
		c17.2-2.2,33.1-8.5,46.8-17.8C-294.2,122.4-312.8,90.4-313.3,53.9L-313.3,53.9z"/>
</g>
<g>
	<path d="M-65.8-0.7c4.4,0,8,3.6,8,8s-3.6,8-8,8s-8-3.6-8-8S-70.2-0.7-65.8-0.7 M-65.8-1.7c-5,0-9,4-9,9s4,9,9,9s9-4,9-9
		S-60.9-1.7-65.8-1.7L-65.8-1.7z"/>
</g>
<g>
	<path d="M-65.8,3.8c1.9,0,3.5,1.6,3.5,3.5s-1.6,3.5-3.5,3.5s-3.5-1.6-3.5-3.5S-67.8,3.8-65.8,3.8 M-65.8,2.8c-2.5,0-4.5,2-4.5,4.5
		s2,4.5,4.5,4.5s4.5-2,4.5-4.5S-63.3,2.8-65.8,2.8L-65.8,2.8z"/>
</g>
<g>
	<path d="M-112.2,15.3c-0.3,0.6-0.5,1.3-0.5,2.1c0,0.2,0,0.4,0,0.5C-112.5,17.1-112.3,16.2-112.2,15.3L-112.2,15.3z"/>
</g>
<g>
	<path d="M-103.9,15.1c0.2,0.5,0.4,1,0.6,1.6C-103.4,16.1-103.6,15.5-103.9,15.1L-103.9,15.1z"/>
</g>
<g>
	<path d="M-112.7,86.4c0,0.2,0,0.4,0,0.6c0,0.8,0.2,1.5,0.5,2.2C-112.3,88.3-112.5,87.4-112.7,86.4L-112.7,86.4z"/>
</g>
<g>
	<path class="st1" d="M176.9,45.8c-0.3-0.4-0.4-0.8-0.3-1.3c0.2-0.5,0.6-1,1.1-1.1c0.1,0,0.3,0,0.4,0c0.5,0,0.9,0.2,1.2,0.6
		c0.3,0.4,0.4,0.8,0.3,1.3c-0.2,0.5-0.6,1-1.1,1.1c-0.1,0-0.3,0-0.4,0C177.7,46.4,177.2,46.2,176.9,45.8z"/>
	<path class="st1" d="M178.1,44.4c0.2,0,0.4,0.2,0.4,0.2c0.1,0.2,0.1,0.3,0.1,0.5c0,0.1-0.2,0.3-0.3,0.3c-0.1,0-0.2,0-0.2,0
		c-0.2,0-0.4-0.1-0.4-0.2c-0.1-0.2-0.1-0.3-0.1-0.5c0-0.1,0.2-0.3,0.3-0.3C178,44.4,178.1,44.4,178.1,44.4 M178.1,42.4
		c-0.2,0-0.4,0.1-0.6,0.1c-0.9,0.2-1.6,0.9-1.8,1.8c-0.4,1.6,0.8,3.1,2.4,3.1c0.2,0,0.4,0,0.6-0.1c0.9-0.2,1.6-0.9,1.8-1.8
		C180.9,43.9,179.7,42.4,178.1,42.4L178.1,42.4z"/>
</g>
<g>
	<path d="M-135.2,38c0.6,1.2,1.4,2.2,2.4,3.1C-133.5,40-134.3,39-135.2,38L-135.2,38z"/>
</g>
<g>
	<path d="M-133.2,64.1c-0.8,0.7-1.4,1.5-1.9,2.4C-134.4,65.7-133.8,64.9-133.2,64.1L-133.2,64.1z"/>
</g>
</svg>
